<svg width="71" height="17" viewBox="0 0 71 17" fill="none" xmlns="http://www.w3.org/2000/svg">
<path d="M14.5664 14.4268C13.8145 15.1572 12.9229 15.7301 11.8916 16.1455C10.8604 16.5537 9.736 16.7578 8.51855 16.7578C7.29395 16.7578 6.16243 16.5501 5.12402 16.1348C4.08561 15.7122 3.18327 15.125 2.41699 14.373C1.65072 13.6139 1.05632 12.7259 0.633789 11.709C0.211263 10.6921 0 9.58203 0 8.37891C0 7.17578 0.211263 6.06576 0.633789 5.04883C1.05632 4.0319 1.65072 3.14746 2.41699 2.39551C3.18327 1.63639 4.08561 1.04915 5.12402 0.633789C6.16243 0.211263 7.29395 0 8.51855 0C9.72884 0 10.846 0.207682 11.8701 0.623047C12.8942 1.03125 13.7858 1.60417 14.5449 2.3418L11.9023 4.99512C11.4941 4.46517 10.9928 4.0498 10.3984 3.74902C9.80404 3.44824 9.15592 3.29785 8.4541 3.29785C7.80241 3.29785 7.19727 3.42676 6.63867 3.68457C6.08008 3.94238 5.5931 4.30046 5.17773 4.75879C4.76237 5.21712 4.4401 5.75423 4.21094 6.37012C3.98177 6.986 3.86719 7.65202 3.86719 8.36816C3.86719 9.09863 3.98177 9.77181 4.21094 10.3877C4.4401 10.9964 4.76237 11.5335 5.17773 11.999C5.5931 12.4574 6.08008 12.8154 6.63867 13.0732C7.19727 13.3311 7.80241 13.46 8.4541 13.46C9.15592 13.46 9.80046 13.3096 10.3877 13.0088C10.9821 12.708 11.487 12.2926 11.9023 11.7627L14.5664 14.4268ZM26.1787 16.4355H23.0957L22.9131 15.2109C22.5192 15.6693 22.0394 16.0238 21.4736 16.2744C20.9079 16.5251 20.2848 16.6504 19.6045 16.6504C18.8597 16.6504 18.1973 16.5072 17.6172 16.2207C17.0371 15.9342 16.5788 15.5404 16.2422 15.0391C15.9128 14.5306 15.748 13.9541 15.748 13.3096C15.748 12.6292 15.9271 12.0312 16.2852 11.5156C16.6504 11 17.1517 10.5954 17.7891 10.3018C18.4264 10.0081 19.1533 9.86133 19.9697 9.86133C20.4352 9.86133 20.8936 9.91146 21.3447 10.0117C21.8031 10.112 22.2399 10.2516 22.6553 10.4307V10.2051C22.6553 9.82552 22.5407 9.49609 22.3115 9.2168C22.0824 8.9375 21.7708 8.71908 21.377 8.56152C20.9831 8.39681 20.5355 8.31445 20.0342 8.31445C19.54 8.31445 19.0602 8.39323 18.5947 8.55078C18.1292 8.70117 17.7031 8.9196 17.3164 9.20605L16.3926 6.57422C17.1517 6.20898 17.9072 5.93685 18.6592 5.75781C19.4183 5.57161 20.1488 5.47852 20.8506 5.47852C21.932 5.47852 22.8701 5.68978 23.665 6.1123C24.4671 6.53483 25.0866 7.13281 25.5234 7.90625C25.9603 8.67253 26.1787 9.58203 26.1787 10.6348V16.4355ZM20.3994 14.0186C20.7646 14.0186 21.1156 13.9398 21.4521 13.7822C21.7959 13.6175 22.0752 13.4027 22.29 13.1377C22.512 12.8727 22.6266 12.5898 22.6338 12.2891V12.2461C22.3473 12.0599 22.0286 11.9202 21.6777 11.8271C21.3268 11.7269 20.9759 11.6768 20.625 11.6768C20.1022 11.6768 19.6833 11.7842 19.3682 11.999C19.0531 12.2067 18.8955 12.486 18.8955 12.8369C18.8955 13.0589 18.96 13.263 19.0889 13.4492C19.2178 13.6283 19.3968 13.7679 19.626 13.8682C19.8551 13.9684 20.113 14.0186 20.3994 14.0186ZM38.0811 14.6738C37.5583 15.2897 36.9102 15.7731 36.1367 16.124C35.3633 16.4749 34.5075 16.6504 33.5693 16.6504C32.4521 16.6504 31.4531 16.4105 30.5723 15.9307C29.6986 15.4437 29.0111 14.7812 28.5098 13.9434C28.0085 13.0983 27.7578 12.1387 27.7578 11.0645C27.7578 9.99023 28.0085 9.03418 28.5098 8.19629C29.0111 7.35124 29.6986 6.6888 30.5723 6.20898C31.4531 5.72201 32.4521 5.47852 33.5693 5.47852C34.5003 5.47852 35.349 5.65397 36.1152 6.00488C36.8887 6.34863 37.5368 6.82129 38.0596 7.42285L35.9971 9.60352C35.7464 9.30273 35.4242 9.06641 35.0303 8.89453C34.6436 8.72266 34.2389 8.63672 33.8164 8.63672C33.3438 8.63672 32.9212 8.74056 32.5488 8.94824C32.1836 9.14876 31.8936 9.43164 31.6787 9.79688C31.471 10.1621 31.3672 10.5775 31.3672 11.043C31.3672 11.5228 31.471 11.9489 31.6787 12.3213C31.8936 12.6865 32.1836 12.973 32.5488 13.1807C32.9212 13.3883 33.3438 13.4922 33.8164 13.4922C34.2389 13.4922 34.6471 13.4062 35.041 13.2344C35.4349 13.0625 35.7536 12.8262 35.9971 12.5254L38.0811 14.6738ZM47.6094 16.1455C46.75 16.4821 45.9157 16.6504 45.1064 16.6504C44.2542 16.6504 43.4987 16.4714 42.8398 16.1133C42.1882 15.748 41.6797 15.2467 41.3145 14.6094C40.9492 13.9648 40.7666 13.2165 40.7666 12.3643V8.84082H38.8867V5.69336H40.96V3.00781H44.29V5.69336H47.1904V8.84082H44.29V11.7305C44.29 12.2962 44.4476 12.7331 44.7627 13.041C45.0778 13.349 45.4574 13.5029 45.9014 13.5029C46.3311 13.5029 46.75 13.3669 47.1582 13.0947L47.6094 16.1455ZM59.9199 16.4355H57.1055L56.9873 14.7168C56.6149 15.347 56.1172 15.8268 55.4941 16.1562C54.8711 16.4857 54.1442 16.6504 53.3135 16.6504C51.96 16.6504 50.9001 16.2314 50.1338 15.3936C49.3675 14.5557 48.9844 13.3991 48.9844 11.9238V5.69336H52.5078V11.0322C52.5078 11.8128 52.6761 12.418 53.0127 12.8477C53.3493 13.2773 53.8148 13.4922 54.4092 13.4922C55.0322 13.4922 55.5192 13.2702 55.8701 12.8262C56.221 12.3822 56.3965 11.7699 56.3965 10.9893V5.69336H59.9199V16.4355ZM61.5527 15.5225L62.2939 12.5791C62.5016 12.8083 62.7917 13.0267 63.1641 13.2344C63.5365 13.4421 63.9375 13.6104 64.3672 13.7393C64.804 13.861 65.2122 13.9219 65.5918 13.9219C65.957 13.9219 66.2399 13.8574 66.4404 13.7285C66.641 13.5996 66.7412 13.4277 66.7412 13.2129C66.7412 13.0124 66.6624 12.8441 66.5049 12.708C66.3473 12.5648 66.1396 12.4359 65.8818 12.3213C65.624 12.2067 65.3304 12.0921 65.001 11.9775C64.5426 11.8057 64.0628 11.6016 63.5615 11.3652C63.0602 11.1217 62.6377 10.7959 62.2939 10.3877C61.9574 9.97233 61.7891 9.4209 61.7891 8.7334C61.7891 8.06738 61.9609 7.49089 62.3047 7.00391C62.6556 6.51693 63.1497 6.14095 63.7871 5.87598C64.4245 5.611 65.1729 5.47852 66.0322 5.47852C67.443 5.47852 68.8574 5.83301 70.2754 6.54199L69.2871 9.27051C69.0579 9.08431 68.7643 8.90885 68.4062 8.74414C68.0482 8.57227 67.6794 8.4362 67.2998 8.33594C66.9274 8.22852 66.598 8.1748 66.3115 8.1748C66.0179 8.1748 65.7923 8.2321 65.6348 8.34668C65.4772 8.46126 65.3984 8.61523 65.3984 8.80859C65.3984 8.98047 65.4665 9.13444 65.6025 9.27051C65.7386 9.39941 65.9355 9.52116 66.1934 9.63574C66.4512 9.75033 66.7484 9.87207 67.085 10.001C67.5719 10.1729 68.0661 10.3805 68.5674 10.624C69.0687 10.8675 69.4912 11.1969 69.835 11.6123C70.1859 12.0277 70.3613 12.5827 70.3613 13.2773C70.3613 13.9577 70.1751 14.5521 69.8027 15.0605C69.4303 15.5618 68.904 15.9521 68.2236 16.2314C67.5505 16.5107 66.7555 16.6504 65.8389 16.6504C64.3063 16.6504 62.8776 16.2744 61.5527 15.5225Z" fill="black"/>
</svg>
